HIERARCHY
ROOT Root
{
  OFFSET 0.0 0.0 0.0
  CHANNELS 6 Xposition Yposition Zposition Zrotation Yrotation Xrotation
  JOINT Hips
  {
    OFFSET 0.0 100.0 0.0
    CHANNELS 6 Xposition Yposition Zposition Zrotation Yrotation Xrotation
    JOINT Spine1
    {
      OFFSET -0.013727 5.003763 -0.053727
      CHANNELS 3 Zrotation Yrotation Xrotation
      JOINT Spine2
      {
        OFFSET -0.0 7.125301 -0.029825
        CHANNELS 3 Zrotation Yrotation Xrotation
        JOINT Chest
        {
          OFFSET -1e-06 7.550063 -0.815971
          CHANNELS 3 Zrotation Yrotation Xrotation
          JOINT Neck1
          {
            OFFSET -0.181677 26.311295 -0.553348
            CHANNELS 3 Zrotation Yrotation Xrotation
            JOINT Neck2
            {
              OFFSET -3e-06 7.709397 2.302585
              CHANNELS 3 Zrotation Yrotation Xrotation
              JOINT Head
              {
                OFFSET -5e-06 6.128916 1.953709
                CHANNELS 3 Zrotation Yrotation Xrotation
                JOINT HeadEnd
                {
                  OFFSET 0.003598 16.065403 -1.835379
                  CHANNELS 3 Zrotation Yrotation Xrotation
                }
                JOINT Jaw
                {
                  OFFSET 0.002637 0.475592 3.094941
                  CHANNELS 3 Zrotation Yrotation Xrotation
                }
                JOINT LeftEye
                {
                  OFFSET 3.206381 5.380205 7.586883
                  CHANNELS 3 Zrotation Yrotation Xrotation
                }
                JOINT RightEye
                {
                  OFFSET -3.22244 5.361869 7.558234
                  CHANNELS 3 Zrotation Yrotation Xrotation
                }
              }
            }
          }
          JOINT LeftShoulder
          {
            OFFSET 1.621652 23.237164 5.113413
            CHANNELS 3 Zrotation Yrotation Xrotation
            JOINT LeftArm
            {
              OFFSET 14.919846 2e-06 -5.502326
              CHANNELS 3 Zrotation Yrotation Xrotation
              JOINT LeftForeArm
              {
                OFFSET 28.739307 0.0 -0.002588
                CHANNELS 3 Zrotation Yrotation Xrotation
                JOINT LeftHand
                {
                  OFFSET 27.093981 -1e-06 0.002609
                  CHANNELS 3 Zrotation Yrotation Xrotation
                  JOINT LeftHandThumb1
                  {
                    OFFSET 2.276482 -1.392045 3.191413
                    CHANNELS 3 Zrotation Yrotation Xrotation
                    JOINT LeftHandThumb2
                    {
                      OFFSET 4.012836 -1.828127 1.641654
                      CHANNELS 3 Zrotation Yrotation Xrotation
                      JOINT LeftHandThumb3
                      {
                        OFFSET 2.798515 0.0 -3e-06
                        CHANNELS 3 Zrotation Yrotation Xrotation
                        JOINT LeftHandThumbEnd
                        {
                          OFFSET 3.180793 -4e-06 4e-06
                          CHANNELS 3 Zrotation Yrotation Xrotation
                        }
                      }
                    }
                  }
                  JOINT LeftHandIndex1
                  {
                    OFFSET 3.247555 -0.531998 2.296169
                    CHANNELS 3 Zrotation Yrotation Xrotation
                    JOINT LeftHandIndex2
                    {
                      OFFSET 6.364578 0.01206 0.1786
                      CHANNELS 3 Zrotation Yrotation Xrotation
                      JOINT LeftHandIndex3
                      {
                        OFFSET 3.662364 0.0 0.0
                        CHANNELS 3 Zrotation Yrotation Xrotation
                        JOINT LeftHandIndex4
                        {
                          OFFSET 2.329242 4e-06 4e-06
                          CHANNELS 3 Zrotation Yrotation Xrotation
                          JOINT LeftHandIndexEnd
                          {
                            OFFSET 2.759615 -0.180537 -0.113024
                            CHANNELS 3 Zrotation Yrotation Xrotation
                          }
                        }
                      }
                    }
                  }
                  JOINT LeftHandMiddle1
                  {
                    OFFSET 3.163495 0.240981 1.000332
                    CHANNELS 3 Zrotation Yrotation Xrotation
                    JOINT LeftHandMiddle2
                    {
                      OFFSET 6.19078 -0.259278 -1.002548
                      CHANNELS 3 Zrotation Yrotation Xrotation
                      JOINT LeftHandMiddle3
                      {
                        OFFSET 4.35652 -4e-06 -1e-06
                        CHANNELS 3 Zrotation Yrotation Xrotation
                        JOINT LeftHandMiddle4
                        {
                          OFFSET 2.996877 -8e-06 0.0
                          CHANNELS 3 Zrotation Yrotation Xrotation
                          JOINT LeftHandMiddleEnd
                          {
                            OFFSET 2.304287 -0.294569 -0.031741
                            CHANNELS 3 Zrotation Yrotation Xrotation
                          }
                        }
                      }
                    }
                  }
                  JOINT LeftHandRing1
                  {
                    OFFSET 2.882643 -0.053652 -0.322543
                    CHANNELS 3 Zrotation Yrotation Xrotation
                    JOINT LeftHandRing2
                    {
                      OFFSET 5.854541 -0.486202 -1.373841
                      CHANNELS 3 Zrotation Yrotation Xrotation
                      JOINT LeftHandRing3
                      {
                        OFFSET 4.350578 0.0 3e-06
                        CHANNELS 3 Zrotation Yrotation Xrotation
                        JOINT LeftHandRing4
                        {
                          OFFSET 2.651321 7e-06 2e-06
                          CHANNELS 3 Zrotation Yrotation Xrotation
                          JOINT LeftHandRingEnd
                          {
                            OFFSET 1.936105 0.077687 -7.1e-05
                            CHANNELS 3 Zrotation Yrotation Xrotation
                          }
                        }
                      }
                    }
                  }
                  JOINT LeftHandPinky1
                  {
                    OFFSET 2.8655 -0.310005 -1.600378
                    CHANNELS 3 Zrotation Yrotation Xrotation
                    JOINT LeftHandPinky2
                    {
                      OFFSET 5.087849 -1.331141 -1.77123
                      CHANNELS 3 Zrotation Yrotation Xrotation
                      JOINT LeftHandPinky3
                      {
                        OFFSET 3.070974 4e-06 0.0
                        CHANNELS 3 Zrotation Yrotation Xrotation
                        JOINT LeftHandPinky4
                        {
                          OFFSET 1.549672 0.0 1e-06
                          CHANNELS 3 Zrotation Yrotation Xrotation
                          JOINT LeftHandPinkyEnd
                          {
                            OFFSET 1.944893 -0.157802 0.057219
                            CHANNELS 3 Zrotation Yrotation Xrotation
                          }
                        }
                      }
                    }
                  }
                }
              }
            }
          }
          JOINT RightShoulder
          {
            OFFSET -1.380118 23.180309 5.214158
            CHANNELS 3 Zrotation Yrotation Xrotation
            JOINT RightArm
            {
              OFFSET -15.037196 1.2e-05 -5.545604
              CHANNELS 3 Zrotation Yrotation Xrotation
              JOINT RightForeArm
              {
                OFFSET -28.736639 2e-06 -0.002597
                CHANNELS 3 Zrotation Yrotation Xrotation
                JOINT RightHand
                {
                  OFFSET -27.133619 -0.0 0.002613
                  CHANNELS 3 Zrotation Yrotation Xrotation
                  JOINT RightHandThumb1
                  {
                    OFFSET -2.274032 -1.383988 3.163127
                    CHANNELS 3 Zrotation Yrotation Xrotation
                    JOINT RightHandThumb2
                    {
                      OFFSET -4.011429 -1.827466 1.640914
                      CHANNELS 3 Zrotation Yrotation Xrotation
                      JOINT RightHandThumb3
                      {
                        OFFSET -2.794935 -4e-06 -3e-06
                        CHANNELS 3 Zrotation Yrotation Xrotation
                        JOINT RightHandThumbEnd
                        {
                          OFFSET -3.183852 4e-06 1e-06
                          CHANNELS 3 Zrotation Yrotation Xrotation
                        }
                      }
                    }
                  }
                  JOINT RightHandIndex1
                  {
                    OFFSET -3.253266 -0.520057 2.282866
                    CHANNELS 3 Zrotation Yrotation Xrotation
                    JOINT RightHandIndex2
                    {
                      OFFSET -6.341917 0.012471 0.178266
                      CHANNELS 3 Zrotation Yrotation Xrotation
                      JOINT RightHandIndex3
                      {
                        OFFSET -3.654871 -8e-06 -0.0
                        CHANNELS 3 Zrotation Yrotation Xrotation
                        JOINT RightHandIndex4
                        {
                          OFFSET -2.327586 0.0 1e-06
                          CHANNELS 3 Zrotation Yrotation Xrotation
                          JOINT RightHandIndexEnd
                          {
                            OFFSET -2.76179 -0.180656 -0.113078
                            CHANNELS 3 Zrotation Yrotation Xrotation
                          }
                        }
                      }
                    }
                  }
                  JOINT RightHandMiddle1
                  {
                    OFFSET -3.168106 0.246593 1.00103
                    CHANNELS 3 Zrotation Yrotation Xrotation
                    JOINT RightHandMiddle2
                    {
                      OFFSET -6.180828 -0.258836 -1.000895
                      CHANNELS 3 Zrotation Yrotation Xrotation
                      JOINT RightHandMiddle3
                      {
                        OFFSET -4.348901 0.0 -0.0
                        CHANNELS 3 Zrotation Yrotation Xrotation
                        JOINT RightHandMiddle4
                        {
                          OFFSET -3.00024 -4e-06 -2e-06
                          CHANNELS 3 Zrotation Yrotation Xrotation
                          JOINT RightHandMiddleEnd
                          {
                            OFFSET -2.30252 -0.29437 -0.031706
                            CHANNELS 3 Zrotation Yrotation Xrotation
                          }
                        }
                      }
                    }
                  }
                  JOINT RightHandRing1
                  {
                    OFFSET -2.88569 -0.067952 -0.308858
                    CHANNELS 3 Zrotation Yrotation Xrotation
                    JOINT RightHandRing2
                    {
                      OFFSET -5.854198 -0.48613 -1.373731
                      CHANNELS 3 Zrotation Yrotation Xrotation
                      JOINT RightHandRing3
                      {
                        OFFSET -4.33881 -4e-06 -0.0
                        CHANNELS 3 Zrotation Yrotation Xrotation
                        JOINT RightHandRing4
                        {
                          OFFSET -2.654903 -4e-06 4e-06
                          CHANNELS 3 Zrotation Yrotation Xrotation
                          JOINT RightHandRingEnd
                          {
                            OFFSET -1.933568 0.077527 -5.2e-05
                            CHANNELS 3 Zrotation Yrotation Xrotation
                          }
                        }
                      }
                    }
                  }
                  JOINT RightHandPinky1
                  {
                    OFFSET -2.866425 -0.342796 -1.584145
                    CHANNELS 3 Zrotation Yrotation Xrotation
                    JOINT RightHandPinky2
                    {
                      OFFSET -5.091371 -1.332055 -1.772385
                      CHANNELS 3 Zrotation Yrotation Xrotation
                      JOINT RightHandPinky3
                      {
                        OFFSET -3.062664 -4e-06 1e-06
                        CHANNELS 3 Zrotation Yrotation Xrotation
                        JOINT RightHandPinky4
                        {
                          OFFSET -1.546529 4e-06 -2e-06
                          CHANNELS 3 Zrotation Yrotation Xrotation
                          JOINT RightHandPinkyEnd
                          {
                            OFFSET -1.945119 -0.157718 0.057211
                            CHANNELS 3 Zrotation Yrotation Xrotation
                          }
                        }
                      }
                    }
                  }
                }
              }
            }
          }
        }
      }
    }
    JOINT LeftLeg
    {
      OFFSET 10.043214 -8.434526 2.595655
      CHANNELS 3 Zrotation Yrotation Xrotation
      JOINT LeftShin
      {
        OFFSET -1e-06 -43.221752 -0.802913
        CHANNELS 3 Zrotation Yrotation Xrotation
        JOINT LeftFoot
        {
          OFFSET 1e-06 -42.155094 -3.481523
          CHANNELS 3 Zrotation Yrotation Xrotation
          JOINT LeftToeBase
          {
            OFFSET 0.0 -5.059472 13.231529
            CHANNELS 3 Zrotation Yrotation Xrotation
            JOINT LeftToeEnd
            {
              OFFSET -0.009607 -1.647619 6.513017
              CHANNELS 3 Zrotation Yrotation Xrotation
            }
          }
        }
      }
    }
    JOINT RightLeg
    {
      OFFSET -10.047278 -8.29526 2.620317
      CHANNELS 3 Zrotation Yrotation Xrotation
      JOINT RightShin
      {
        OFFSET 1e-06 -43.362206 -0.805556
        CHANNELS 3 Zrotation Yrotation Xrotation
        JOINT RightFoot
        {
          OFFSET 2e-06 -42.117393 -3.478398
          CHANNELS 3 Zrotation Yrotation Xrotation
          JOINT RightToeBase
          {
            OFFSET -0.0 -5.079609 13.284196
            CHANNELS 3 Zrotation Yrotation Xrotation
            JOINT RightToeEnd
            {
              OFFSET 0.009532 -1.634378 6.460591
              CHANNELS 3 Zrotation Yrotation Xrotation
            }
          }
        }
      }
    }
  }
}
MOTION
Frames: 4
Frame Time: 0.03333333333333333
-5.029677 0.0 1.283446 0.0 -0.429562 0.0 0.0 99.122421 0.0 -0.622009 -0.007472 -0.687767 0.690354 -0.03311 -0.40011 -0.543422 0.003175 -5.001388 -1.310361 -1.925051 10.676296 1.342966 2.481149 10.86895 -0.554161 1.070375 -3.59799 1.186585 0.307022 -9.686291 7.7e-05 -2.2e-05 6e-06 0.013444 -0.021851 0.040267 0.743641 -3.771521 -10.620209 -0.716869 3.738183 -10.627874 -14.743796 -4.10753 13.167696 -52.890324 -3.262757 17.974186 -0.163148 -39.407803 0.300412 -2.963952 2.171347 4.753956 -5.882107 9.861286 0.702592 -10.936873 -0.360574 7.156209 0.0 8.774826 -1e-06 -16.125959 18.307835 6.186285 -1.844033 2.498505 -2.507279 -10.163604 4.678947 4.621108 -20.97603 -3e-06 1e-06 -21.226294 2.451697 -3.594002 1e-06 -3e-06 -1e-06 -1.362682 2.240799 -0.746322 -21.334921 0.584911 3.008323 -13.821218 -3e-06 0.0 -23.887175 -0.249079 -0.839484 -60.693184 2.529094 -1.114317 -0.294025 1.679688 0.833256 -14.218212 0.093215 1.300581 -34.212055 -0.287565 0.96717 -20.033218 0.964536 1.212843 1e-06 -0.0 0.0 -3.440389 0.788234 0.501655 -15.928189 -3.167311 2.999709 -6.338827 -2e-06 -1e-06 -18.123453 3.648183 -4.90567 -3e-06 1e-06 -0.0 16.154102 6.158577 14.984416 55.689083 1.935591 22.29059 -0.111898 33.64032 -0.138231 -0.209447 -6.724949 -14.301393 2.243542 -5.255036 -3.180159 14.282893 -0.826595 6.952503 -3e-06 -12.690602 -1e-06 16.17289 -17.732367 2.497779 1.665666 -1.955921 -2.8783 4.727799 -4.170587 4.993925 11.020529 3e-06 -4e-06 12.109056 -3.735715 -2.866785 -0.0 -0.0 -2e-06 1.291986 -1.928549 -1.49809 14.800129 0.567468 3.865607 14.242577 -1.341736 -6.660661 19.631969 0.143927 -0.648248 49.537312 -0.511403 -6.496457 0.353029 -1.51115 -0.03194 20.222794 3.684309 2.316629 18.787273 6e-06 -3e-06 10.751626 -0.479868 1.397906 -0.0 -0.0 -2e-06 3.273808 0.305948 -0.580112 21.486816 11.830373 2.266129 8.162929 1e-06 -2e-06 18.399084 -3.798984 -4.940577 3e-06 0.0 -2e-06 10.483928 11.626892 -3.677831 -0.04872 -0.015462 11.548124 -11.107323 -2.656762 -5.098289 1.629025 -1.899626 -0.920834 -0.0 -0.0 2e-06 -7.874055 -18.787319 -0.749129 0.000981 -0.210542 11.371381 8.938867 -6.873535 -7.196293 -1.417163 1.013993 -0.732827 -0.0 -0.0 -1e-06 
-4.935543 0.0 1.277348 0.0 -0.548468 0.0 0.0 99.152817 0.0 -0.582014 -0.007136 -0.701255 0.652359 -0.022011 -0.390602 -0.539074 0.07178 -5.019114 -1.42348 -1.898998 10.604317 1.542372 2.383983 11.06664 -0.645102 0.729749 -3.597848 1.228708 -0.1871 -9.70285 7.7e-05 -2.2e-05 6e-06 0.007524 -0.002281 0.03725 0.732382 -3.751406 -10.614448 -0.717453 3.756088 -10.620315 -14.723745 -4.055208 13.165188 -52.992413 -3.328268 17.975256 -0.210353 -39.808964 0.280466 -3.165706 2.294371 5.062804 -5.882108 9.861288 0.702591 -10.936873 -0.360575 7.156206 -0.0 8.774826 -0.0 -16.123396 18.269207 6.166359 -1.844033 2.498506 -2.50728 -10.163601 4.678946 4.621111 -20.976027 -3e-06 3e-06 -21.22629 2.451698 -3.593997 -0.0 -4e-06 1e-06 -1.362681 2.240799 -0.746321 -21.334919 0.58491 3.008326 -13.821218 -3e-06 1e-06 -23.887177 -0.249077 -0.839481 -60.674934 2.521711 -1.055327 -0.294025 1.679688 0.833259 -14.218212 0.093215 1.30058 -34.212059 -0.287562 0.96717 -20.033224 0.964537 1.212843 0.0 -0.0 1e-06 -3.44039 0.788234 0.501657 -15.928192 -3.167309 2.999708 -6.338828 -0.0 0.0 -18.123447 3.648186 -4.905669 -3e-06 1e-06 -1e-06 16.075018 6.10997 15.064144 55.782001 2.116922 22.072018 -0.185907 33.498863 -0.16886 -0.3006 -6.738795 -14.37788 2.243542 -5.255038 -3.180158 14.282894 -0.826597 6.952503 -1e-06 -12.690609 1e-06 16.219395 -17.740015 2.491879 1.665667 -1.955922 -2.878298 4.727801 -4.170591 4.993926 11.020529 1e-06 -2e-06 12.109056 -3.735718 -2.866785 -0.0 1e-06 -3e-06 1.291986 -1.92855 -1.49809 14.800132 0.567466 3.865608 14.242576 -1.341739 -6.660659 19.631969 0.143924 -0.648247 49.660297 -0.501952 -6.481962 0.353029 -1.511152 -0.03194 20.222795 3.684309 2.31663 18.787279 2e-06 -3e-06 10.751631 -0.47987 1.397905 -2e-06 0.0 -1e-06 3.273808 0.305947 -0.58011 21.486816 11.830378 2.266131 8.16293 -0.0 -0.0 18.39909 -3.798989 -4.940578 3e-06 0.0 -1e-06 10.377941 11.60065 -3.511345 -0.068011 -0.058256 11.296649 -10.971656 -2.462448 -5.039009 1.632119 -1.91393 -0.999215 0.0 -0.0 2e-06 -7.937274 -18.532324 -0.624108 -0.01647 -0.211307 11.047092 8.947924 -6.948703 -7.012844 -1.422776 1.004063 -0.71405 -0.0 -0.0 -1e-06 
-4.766351 0.0 1.271755 0.0 -0.759081 0.0 0.0 99.169479 0.0 -0.511642 -0.006117 -0.682488 0.584252 -0.013185 -0.402028 -0.544302 0.100212 -5.039759 -1.543497 -1.831313 10.573626 1.818607 2.252981 11.265955 -0.764414 0.235462 -3.631261 1.305996 -0.852166 -9.669625 7.7e-05 -2.3e-05 6e-06 0.006957 0.000327 0.034657 0.722164 -3.745514 -10.615315 -0.708397 3.753425 -10.614731 -14.684157 -4.010341 13.153365 -53.053722 -3.387866 17.996344 -0.279066 -40.236523 0.298035 -3.396458 2.478268 5.226424 -5.88211 9.861291 0.702588 -10.936873 -0.360573 7.156206 -1e-06 8.774828 -1e-06 -16.124359 18.282988 6.164543 -1.844034 2.498506 -2.507277 -10.163604 4.678948 4.621108 -20.976032 -0.0 -2e-06 -21.226297 2.451699 -3.594007 1e-06 -6e-06 -1e-06 -1.362682 2.240799 -0.746325 -21.334921 0.584913 3.008321 -13.821218 -1e-06 -2e-06 -23.887175 -0.249078 -0.839487 -60.645256 2.546686 -1.094599 -0.294025 1.679687 0.833257 -14.218211 0.093217 1.30058 -34.212059 -0.287563 0.967165 -20.033222 0.964535 1.212842 0.0 -0.0 1e-06 -3.44039 0.788234 0.501655 -15.928191 -3.167309 2.999705 -6.338828 -0.0 -2e-06 -18.123455 3.648184 -4.905677 -3e-06 -0.0 -1e-06 15.960619 6.087648 15.114487 55.861897 2.290264 21.762508 -0.184743 33.528355 -0.183113 -0.544496 -6.798318 -14.471646 2.243543 -5.255043 -3.180159 14.282901 -0.826599 6.952509 -0.0 -12.690618 -1e-06 16.242476 -17.709846 2.497771 1.665668 -1.955923 -2.878301 4.727803 -4.170593 4.993928 11.020533 1e-06 -1e-06 12.10906 -3.735722 -2.866785 0.0 0.0 -2e-06 1.291986 -1.92855 -1.498088 14.800139 0.567467 3.865611 14.242582 -1.341739 -6.660663 19.631983 0.143924 -0.648245 49.66732 -0.495982 -6.47936 0.353029 -1.511152 -0.031939 20.222805 3.68431 2.316633 18.787289 1e-06 -2e-06 10.751636 -0.479871 1.397905 -2e-06 0.0 -0.0 3.273809 0.305946 -0.580111 21.48683 11.830385 2.266136 8.162932 0.0 0.0 18.399097 -3.798994 -4.940581 3e-06 0.0 -1e-06 10.172393 11.516058 -3.461298 -0.073153 -0.091173 11.255593 -10.710218 -2.213518 -5.129191 1.635714 -1.924114 -1.041057 -0.0 -0.0 2e-06 -8.079827 -18.242645 -0.630596 -0.019383 -0.227883 10.874678 9.055519 -6.99418 -6.871906 -1.422899 1.013425 -0.660138 -0.0 -0.0 -1e-06 
-4.539323 0.0 1.226829 0.0 -1.103808 0.0 0.0 99.174637 0.0 -0.442875 -0.00499 -0.641092 0.488114 -0.006046 -0.375303 -0.550384 0.119436 -5.048833 -1.64755 -1.723754 10.540606 2.130594 2.06274 11.427875 -0.905016 -0.318434 -3.654208 1.44381 -1.627262 -9.718074 7.7e-05 -2.2e-05 6e-06 0.008435 -0.000709 0.036849 0.714773 -3.74285 -10.606757 -0.69802 3.746362 -10.600647 -14.600185 -3.97807 13.129328 -53.065083 -3.509969 18.261688 -0.266559 -40.553928 0.315023 -3.57473 2.647269 5.421479 -5.882109 9.861288 0.702588 -10.936875 -0.360574 7.156207 0.0 8.774829 0.0 -16.09288 18.288866 6.18995 -1.844034 2.498505 -2.507278 -10.163604 4.678947 4.62111 -20.97603 -3e-06 1e-06 -21.226295 2.451696 -3.594002 1e-06 -4e-06 -1e-06 -1.362682 2.240799 -0.746322 -21.334925 0.584909 3.008321 -13.821219 -3e-06 -2e-06 -23.887178 -0.24908 -0.839483 -60.639553 2.560886 -1.124973 -0.294025 1.679687 0.833258 -14.218215 0.093214 1.300579 -34.212063 -0.287564 0.967168 -20.033226 0.964535 1.212841 0.0 0.0 -2e-06 -3.440391 0.788234 0.501657 -15.928192 -3.167311 2.999708 -6.338829 -1e-06 -1e-06 -18.123455 3.648185 -4.905674 -3e-06 1e-06 -3e-06 15.719854 6.092383 15.134995 55.969742 2.491734 21.664131 -0.236938 33.797287 -0.223857 -0.846085 -6.859323 -14.430462 2.243542 -5.255038 -3.180158 14.282894 -0.826595 6.952502 -2e-06 -12.69061 1e-06 16.267132 -17.68766 2.513712 1.665667 -1.955922 -2.8783 4.727798 -4.170588 4.993925 11.020529 3e-06 -4e-06 12.109056 -3.735717 -2.866787 0.0 1e-06 -2e-06 1.291986 -1.92855 -1.498089 14.800131 0.567468 3.865607 14.242578 -1.341736 -6.660662 19.631973 0.143928 -0.648246 49.646889 -0.517028 -6.453584 0.353029 -1.511152 -0.031941 20.222797 3.684311 2.316628 18.787279 5e-06 -4e-06 10.751631 -0.479868 1.397905 -2e-06 -0.0 -1e-06 3.273808 0.305947 -0.580111 21.486816 11.830379 2.26613 8.162928 1e-06 -2e-06 18.39908 -3.798985 -4.940578 3e-06 1e-06 1e-06 9.923453 11.457362 -3.537631 -0.074783 -0.118416 11.437555 -10.384377 -1.860991 -5.341071 1.636159 -1.925309 -1.074744 0.0 -0.0 2e-06 -8.24172 -17.911358 -0.79916 -0.017926 -0.249778 10.853638 9.210708 -6.920424 -6.740058 -1.421237 1.018976 -0.636664 0.0 1e-06 -1e-06 
